
<svg version="1.0" xmlns="http://www.w3.org/2000/svg"
     width="1034.000000pt" height="1034.000000pt" viewBox="0 0 1034.000000 1034.000000"
     preserveAspectRatio="xMidYMid meet">
    <metadata>
        Created by potrace 1.16, written by Peter Selinger 2001-2019
    </metadata>
    <g transform="translate(0.000000,1034.000000) scale(0.100000,-0.100000)"
       fill="#000000" stroke="none">
        <path d="M5837 8620 c-46 -14 -93 -56 -116 -103 -18 -38 -21 -61 -21 -193 l0
-150 80 -1 80 0 0 136 c0 93 4 141 12 149 17 17 1519 17 1536 0 8 -8 12 -51
12 -129 l0 -117 -37 -7 c-107 -20 -244 -126 -302 -235 -86 -161 -73 -364 33
-508 53 -72 104 -113 193 -155 65 -31 73 -32 193 -32 123 0 126 1 200 36 91
44 146 90 194 164 126 189 105 433 -50 596 -59 61 -162 122 -229 135 l-33 6
-4 136 c-3 122 -6 141 -27 179 -27 46 -60 74 -110 91 -40 14 -1558 16 -1604 2z
m1794 -519 c108 -41 192 -128 231 -238 28 -81 22 -195 -14 -275 -37 -80 -107
-152 -187 -191 -60 -29 -75 -32 -161 -32 -82 0 -103 4 -152 27 -80 37 -152
107 -191 187 -30 61 -32 73 -32 166 0 90 3 106 29 160 89 180 295 264 477 196z"/>
        <path d="M7319 7612 c25 -47 113 -91 182 -92 56 0 141 40 170 81 l20 29 -191
0 c-179 0 -190 -1 -181 -18z"/>
        <path d="M3763 8206 c-171 -42 -321 -199 -352 -369 -5 -26 -11 -50 -14 -53 -2
-3 -75 36 -161 86 -86 50 -163 93 -171 96 -12 5 -15 -4 -15 -48 l0 -55 -71 -7
c-82 -7 -114 -22 -157 -70 -44 -50 -52 -91 -52 -268 l0 -158 -215 0 c-158 0
-224 -4 -248 -13 -52 -22 -103 -87 -117 -148 -8 -40 -10 -354 -8 -1169 l3
-1115 22 -41 c28 -52 72 -90 121 -104 20 -5 92 -10 160 -10 l122 0 0 -56 c0
-41 3 -55 13 -52 21 5 327 182 327 189 0 6 -326 199 -336 199 -2 0 -4 -27 -4
-60 l0 -60 -125 0 c-113 0 -125 2 -135 19 -7 13 -10 381 -10 1121 0 740 3
1108 10 1121 10 18 23 19 215 19 l203 0 4 -177 c3 -200 9 -218 81 -277 l39
-31 683 -3 684 -2 17 -61 c43 -152 193 -296 341 -327 l38 -8 3 -100 3 -100
-58 -28 c-80 -39 -169 -104 -225 -164 -44 -46 -121 -156 -131 -185 -2 -7 -82
40 -196 116 -106 70 -196 127 -201 127 -5 0 -12 -9 -15 -20 -6 -20 -15 -20
-386 -20 -224 0 -379 -4 -379 -9 0 -5 23 -35 51 -66 57 -61 117 -100 194 -127
l50 -17 3 -204 2 -205 -34 -6 c-67 -13 -171 -74 -230 -135 -208 -219 -167
-568 86 -732 83 -53 164 -72 285 -67 88 3 106 7 173 40 41 19 94 52 116 72
171 148 208 423 84 617 -62 96 -189 187 -288 205 l-32 6 2 206 3 205 40 12
c55 16 103 42 151 81 l41 33 209 -140 209 -139 -5 -43 c-11 -90 -4 -262 13
-327 26 -101 98 -237 161 -305 l55 -60 1 144 c0 131 -2 150 -26 215 -35 93
-43 232 -20 328 53 224 239 406 466 454 133 28 282 3 410 -69 30 -17 87 -62
125 -101 160 -162 213 -386 140 -601 -22 -67 -25 -92 -25 -222 l0 -147 31 30
c103 98 186 288 204 467 l7 67 225 0 225 0 -6 23 c-6 19 -20 86 -32 154 -4 22
-6 23 -225 25 l-221 3 -18 52 c-46 131 -143 266 -246 344 -33 24 -61 48 -63
54 -2 5 97 77 220 160 288 193 273 170 277 428 l4 187 54 0 c30 0 54 5 54 10
0 11 -157 289 -182 323 -12 16 -24 -1 -111 -152 -53 -93 -97 -172 -97 -175 0
-3 27 -6 60 -6 l60 0 0 -168 c0 -162 -1 -169 -22 -189 -13 -11 -131 -92 -263
-180 l-240 -159 -55 14 c-31 8 -110 14 -183 15 l-128 1 3 75 3 75 39 8 c68 14
173 77 227 136 177 193 172 477 -11 663 -188 190 -503 184 -684 -12 -56 -60
-100 -140 -114 -206 l-8 -38 -651 -3 c-582 -2 -653 0 -667 14 -14 13 -16 64
-16 409 0 445 -6 415 79 415 l41 0 0 -60 c0 -33 4 -60 10 -60 5 0 83 42 172
94 l163 94 12 -84 c25 -171 118 -299 270 -372 77 -37 79 -37 204 -37 l125 0
79 39 c146 72 241 201 265 362 51 330 -259 609 -587 530z m247 -105 c109 -41
193 -128 232 -238 30 -87 22 -199 -21 -287 -39 -80 -121 -156 -201 -188 -84
-34 -215 -32 -292 4 -80 37 -151 107 -191 187 -30 61 -32 73 -32 166 0 88 3
107 27 157 84 180 296 268 478 199z m864 -961 c72 -28 162 -110 199 -182 80
-157 48 -330 -83 -451 -80 -75 -148 -101 -260 -101 -74 -1 -93 3 -150 30 -83
39 -155 110 -194 194 -27 58 -31 75 -31 155 0 82 3 97 32 155 94 190 293 272
487 200z m-1308 -1936 c55 -15 135 -69 178 -121 14 -17 39 -58 54 -90 23 -50
27 -70 27 -153 0 -82 -4 -103 -27 -152 -37 -80 -107 -152 -187 -191 -60 -29
-74 -32 -161 -32 -82 0 -103 4 -153 27 -74 35 -157 114 -190 182 -92 188 -14
418 175 510 95 46 171 52 284 20z"/>
        <path d="M3882 7633 l-192 -3 16 -26 c27 -40 97 -75 161 -81 50 -4 66 -1 112
24 30 15 66 43 79 61 14 17 23 31 21 30 -2 -2 -91 -4 -197 -5z"/>
        <path d="M4733 6683 c-106 -2 -193 -7 -193 -12 0 -18 44 -63 80 -81 104 -53
223 -24 290 70 12 16 20 29 18 28 -2 -2 -90 -4 -195 -5z"/>
        <path d="M3271 4708 c39 -54 110 -88 184 -88 52 0 138 42 165 80 l21 29 -195
3 -194 3 19 -27z"/>
        <path d="M4565 7876 c-87 -51 -160 -97 -162 -102 -3 -8 295 -185 324 -192 10
-3 13 12 13 57 l0 61 305 0 305 0 0 59 c0 33 3 66 6 75 6 14 -25 16 -305 16
l-311 0 0 60 c0 33 -3 60 -7 60 -5 -1 -80 -43 -168 -94z"/>
        <path d="M6205 7745 l0 -75 112 0 c61 0 123 -4 137 -10 l26 -10 0 -821 c0
-745 1 -821 16 -815 9 3 45 6 80 6 l64 0 0 160 0 160 380 0 c424 0 423 0 493
68 55 54 67 105 67 293 l0 158 59 3 59 3 -97 167 c-53 92 -98 168 -101 168 -3
0 -48 -75 -101 -168 l-97 -167 59 -3 59 -3 0 -158 c0 -141 -2 -161 -19 -182
l-19 -24 -371 -3 -371 -3 0 590 c0 392 -4 599 -11 618 -14 38 -67 92 -106 109
-23 10 -76 14 -175 14 l-143 0 0 -75z"/>
        <path d="M5400 7524 c0 -17 67 -95 109 -127 131 -100 306 -119 455 -49 69 32
149 100 179 151 l18 31 -380 0 c-210 0 -381 -3 -381 -6z"/>
        <path d="M4850 5727 c-83 -23 -142 -70 -194 -155 -57 -92 -56 -68 -56 -1156
l0 -1000 -55 88 c-122 194 -237 321 -334 368 -29 14 -71 24 -114 26 -57 4 -75
0 -122 -22 -141 -70 -202 -231 -160 -422 22 -102 122 -297 412 -805 121 -212
255 -450 298 -530 131 -241 191 -311 329 -381 79 -40 155 -54 386 -72 456 -36
829 -42 973 -16 94 18 194 75 277 160 154 157 275 419 344 748 59 277 144
1107 126 1229 -23 165 -126 273 -287 302 -77 14 -133 6 -205 -30 l-57 -28 -6
67 c-10 92 -47 172 -107 228 -62 58 -125 86 -209 92 -89 6 -125 -2 -192 -42
-31 -19 -57 -29 -57 -23 0 7 -13 39 -29 72 -37 78 -105 140 -179 161 -82 24
-213 16 -280 -17 l-51 -25 -3 460 c-3 455 -3 462 -26 518 -51 126 -164 206
-305 214 -42 2 -91 -1 -117 -9z m202 -175 c19 -12 45 -40 58 -64 l25 -43 5
-578 5 -579 24 -19 c13 -10 38 -19 57 -19 27 0 39 7 61 37 15 21 53 63 83 94
64 66 106 82 172 68 104 -24 147 -85 155 -222 6 -104 17 -133 55 -146 42 -15
78 4 127 66 59 76 125 118 181 117 53 -1 119 -32 149 -70 30 -38 39 -82 46
-229 7 -149 16 -179 54 -195 43 -17 77 -2 127 56 56 65 127 114 167 114 53 0
111 -24 148 -61 62 -62 65 -100 40 -400 -55 -646 -110 -977 -197 -1187 -81
-196 -150 -309 -238 -389 -116 -106 -170 -117 -531 -110 -290 7 -517 20 -711
42 -136 15 -200 39 -272 101 -55 47 -81 86 -187 279 -48 88 -171 306 -273 485
-273 478 -380 677 -402 749 -23 74 -26 158 -6 204 16 37 61 82 92 91 69 21
197 -100 334 -313 120 -186 215 -309 245 -317 41 -10 82 13 97 55 10 29 13
262 13 1136 0 872 3 1108 13 1137 15 45 55 94 97 120 40 25 138 20 187 -10z"/>
        <path d="M6190 5361 c0 -6 25 -37 56 -70 40 -43 78 -72 129 -97 150 -74 342
-53 469 52 35 29 96 102 96 115 0 5 -169 9 -375 9 -228 0 -375 -4 -375 -9z"/>
    </g>
</svg>
